<?xml version="1.0" encoding="utf-8"?><!DOCTYPE svg PUBLIC "-//W3C//DTD SVG 1.1//EN" "http://www.w3.org/Graphics/SVG/1.1/DTD/svg11.dtd"><svg xmlns:xlink="http://www.w3.org/1999/xlink" xmlns="http://www.w3.org/2000/svg" id="map" viewBox="0 0 222 222" width="1000" height="1000" fill="#ffffff" data-dot="6"><rect x="0" y="0" height="222" width="222"/><defs><linearGradient id="dot-color" gradientUnits="userSpaceOnUse" x1="12" y1="111" x2="210" y2="111"><stop offset="0%" stop-color="#000000"/><stop offset="100%" stop-color="#000000"/></linearGradient></defs><g fill="url('#dot-color')"><rect x="24" y="180" width="18" height="18" rx="4.5" transform="rotate(-90,33,189)"/><path clip-rule="evenodd" class="svgeye" d="M 22.5 168q -10.5 0 -10.5 10.5v 21q 0 10.5 10.5 10.5h 21q 10.5 0 10.5 -10.5v -21q 0 -10.5 -10.5 -10.5zM 18 179.25q 0 -5.25 5.25 -5.25h 19.5q 5.25 0 5.25 5.25v 19.5q 0 5.25 -5.25 5.25h -19.5q -5.25 0 -5.25 -5.25z" transform="rotate(-90,33,189)"/><rect x="180" y="24" width="18" height="18" rx="4.5" transform="rotate(90,189,33)"/><path clip-rule="evenodd" class="svgeye" d="M 178.5 12q -10.5 0 -10.5 10.5v 21q 0 10.5 10.5 10.5h 21q 10.5 0 10.5 -10.5v -21q 0 -10.5 -10.5 -10.5zM 174 23.25q 0 -5.25 5.25 -5.25h 19.5q 5.25 0 5.25 5.25v 19.5q 0 5.25 -5.25 5.25h -19.5q -5.25 0 -5.25 -5.25z" transform="rotate(90,189,33)"/><rect x="24" y="24" width="18" height="18" rx="4.5" transform="rotate(0,33,33)"/><path clip-rule="evenodd" class="svgeye" d="M 22.5 12q -10.5 0 -10.5 10.5v 21q 0 10.5 10.5 10.5h 21q 10.5 0 10.5 -10.5v -21q 0 -10.5 -10.5 -10.5zM 18 23.25q 0 -5.25 5.25 -5.25h 19.5q 5.25 0 5.25 5.25v 19.5q 0 5.25 -5.25 5.25h -19.5q -5.25 0 -5.25 -5.25z" transform="rotate(0,33,33)"/><circle cx="63" cy="15" r="1.2" transform="rotate(0,63,15)"/><circle cx="69" cy="15" r="2" transform="rotate(0,69,15)"/><circle cx="87" cy="15" r="1.5" transform="rotate(0,87,15)"/><circle cx="105" cy="15" r="2" transform="rotate(0,105,15)"/><circle cx="111" cy="15" r="1.5" transform="rotate(0,111,15)"/><circle cx="123" cy="15" r="3" transform="rotate(0,123,15)"/><circle cx="129" cy="15" r="2" transform="rotate(0,129,15)"/><circle cx="147" cy="15" r="2" transform="rotate(0,147,15)"/><circle cx="153" cy="15" r="1.5" transform="rotate(0,153,15)"/><circle cx="69" cy="21" r="1.2" transform="rotate(0,69,21)"/><circle cx="75" cy="21" r="2" transform="rotate(0,75,21)"/><circle cx="93" cy="21" r="1.5" transform="rotate(0,93,21)"/><circle cx="99" cy="21" r="1.2" transform="rotate(0,99,21)"/><circle cx="111" cy="21" r="2" transform="rotate(0,111,21)"/><circle cx="117" cy="21" r="1.5" transform="rotate(0,117,21)"/><circle cx="135" cy="21" r="3" transform="rotate(0,135,21)"/><circle cx="141" cy="21" r="1.2" transform="rotate(0,141,21)"/><circle cx="153" cy="21" r="1.5" transform="rotate(0,153,21)"/><circle cx="159" cy="21" r="1.2" transform="rotate(0,159,21)"/><circle cx="63" cy="27" r="1.2" transform="rotate(0,63,27)"/><circle cx="81" cy="27" r="3" transform="rotate(0,81,27)"/><circle cx="87" cy="27" r="1.2" transform="rotate(0,87,27)"/><circle cx="105" cy="27" r="2" transform="rotate(0,105,27)"/><circle cx="117" cy="27" r="1.5" transform="rotate(0,117,27)"/><circle cx="153" cy="27" r="2" transform="rotate(0,153,27)"/><circle cx="63" cy="33" r="3" transform="rotate(0,63,33)"/><circle cx="69" cy="33" r="1.5" transform="rotate(0,69,33)"/><circle cx="75" cy="33" r="3" transform="rotate(0,75,33)"/><circle cx="93" cy="33" r="1.5" transform="rotate(0,93,33)"/><circle cx="99" cy="33" r="3" transform="rotate(0,99,33)"/><circle cx="111" cy="33" r="1.5" transform="rotate(0,111,33)"/><circle cx="117" cy="33" r="1.5" transform="rotate(0,117,33)"/><circle cx="147" cy="33" r="3" transform="rotate(0,147,33)"/><circle cx="153" cy="33" r="3" transform="rotate(0,153,33)"/><circle cx="69" cy="39" r="3" transform="rotate(0,69,39)"/><circle cx="75" cy="39" r="1.5" transform="rotate(0,75,39)"/><circle cx="81" cy="39" r="2" transform="rotate(0,81,39)"/><circle cx="87" cy="39" r="1.5" transform="rotate(0,87,39)"/><circle cx="99" cy="39" r="2" transform="rotate(0,99,39)"/><circle cx="117" cy="39" r="1.5" transform="rotate(0,117,39)"/><circle cx="129" cy="39" r="1.5" transform="rotate(0,129,39)"/><circle cx="153" cy="39" r="2" transform="rotate(0,153,39)"/><circle cx="63" cy="45" r="1.5" transform="rotate(0,63,45)"/><circle cx="75" cy="45" r="1.5" transform="rotate(0,75,45)"/><circle cx="87" cy="45" r="1.2" transform="rotate(0,87,45)"/><circle cx="99" cy="45" r="1.2" transform="rotate(0,99,45)"/><circle cx="105" cy="45" r="2" transform="rotate(0,105,45)"/><circle cx="117" cy="45" r="3" transform="rotate(0,117,45)"/><circle cx="123" cy="45" r="2" transform="rotate(0,123,45)"/><circle cx="135" cy="45" r="3" transform="rotate(0,135,45)"/><circle cx="63" cy="51" r="3" transform="rotate(0,63,51)"/><circle cx="75" cy="51" r="3" transform="rotate(0,75,51)"/><circle cx="87" cy="51" r="1.5" transform="rotate(0,87,51)"/><circle cx="99" cy="51" r="1.2" transform="rotate(0,99,51)"/><circle cx="111" cy="51" r="3" transform="rotate(0,111,51)"/><circle cx="123" cy="51" r="3" transform="rotate(0,123,51)"/><circle cx="135" cy="51" r="2" transform="rotate(0,135,51)"/><circle cx="147" cy="51" r="1.5" transform="rotate(0,147,51)"/><circle cx="159" cy="51" r="3" transform="rotate(0,159,51)"/><circle cx="63" cy="57" r="1.5" transform="rotate(0,63,57)"/><circle cx="81" cy="57" r="1.5" transform="rotate(0,81,57)"/><circle cx="87" cy="57" r="2" transform="rotate(0,87,57)"/><circle cx="105" cy="57" r="3" transform="rotate(0,105,57)"/><circle cx="111" cy="57" r="2" transform="rotate(0,111,57)"/><circle cx="117" cy="57" r="1.5" transform="rotate(0,117,57)"/><circle cx="129" cy="57" r="2" transform="rotate(0,129,57)"/><circle cx="135" cy="57" r="2" transform="rotate(0,135,57)"/><circle cx="141" cy="57" r="1.5" transform="rotate(0,141,57)"/><circle cx="147" cy="57" r="3" transform="rotate(0,147,57)"/><circle cx="21" cy="63" r="2" transform="rotate(0,21,63)"/><circle cx="33" cy="63" r="3" transform="rotate(0,33,63)"/><circle cx="45" cy="63" r="3" transform="rotate(0,45,63)"/><circle cx="51" cy="63" r="3" transform="rotate(0,51,63)"/><circle cx="57" cy="63" r="2" transform="rotate(0,57,63)"/><circle cx="63" cy="63" r="1.2" transform="rotate(0,63,63)"/><circle cx="81" cy="63" r="3" transform="rotate(0,81,63)"/><circle cx="93" cy="63" r="2" transform="rotate(0,93,63)"/><circle cx="111" cy="63" r="1.5" transform="rotate(0,111,63)"/><circle cx="129" cy="63" r="3" transform="rotate(0,129,63)"/><circle cx="141" cy="63" r="2" transform="rotate(0,141,63)"/><circle cx="147" cy="63" r="1.2" transform="rotate(0,147,63)"/><circle cx="153" cy="63" r="1.2" transform="rotate(0,153,63)"/><circle cx="165" cy="63" r="3" transform="rotate(0,165,63)"/><circle cx="171" cy="63" r="3" transform="rotate(0,171,63)"/><circle cx="177" cy="63" r="1.5" transform="rotate(0,177,63)"/><circle cx="189" cy="63" r="2" transform="rotate(0,189,63)"/><circle cx="195" cy="63" r="1.2" transform="rotate(0,195,63)"/><circle cx="207" cy="63" r="1.5" transform="rotate(0,207,63)"/><circle cx="15" cy="69" r="2" transform="rotate(0,15,69)"/><circle cx="27" cy="69" r="3" transform="rotate(0,27,69)"/><circle cx="57" cy="69" r="2" transform="rotate(0,57,69)"/><circle cx="63" cy="69" r="3" transform="rotate(0,63,69)"/><circle cx="69" cy="69" r="3" transform="rotate(0,69,69)"/><circle cx="87" cy="69" r="2" transform="rotate(0,87,69)"/><circle cx="93" cy="69" r="3" transform="rotate(0,93,69)"/><circle cx="135" cy="69" r="1.5" transform="rotate(0,135,69)"/><circle cx="141" cy="69" r="2" transform="rotate(0,141,69)"/><circle cx="159" cy="69" r="2" transform="rotate(0,159,69)"/><circle cx="165" cy="69" r="3" transform="rotate(0,165,69)"/><circle cx="171" cy="69" r="1.2" transform="rotate(0,171,69)"/><circle cx="177" cy="69" r="1.5" transform="rotate(0,177,69)"/><circle cx="201" cy="69" r="1.2" transform="rotate(0,201,69)"/><circle cx="207" cy="69" r="3" transform="rotate(0,207,69)"/><circle cx="33" cy="75" r="1.5" transform="rotate(0,33,75)"/><circle cx="39" cy="75" r="2" transform="rotate(0,39,75)"/><circle cx="45" cy="75" r="1.5" transform="rotate(0,45,75)"/><circle cx="51" cy="75" r="3" transform="rotate(0,51,75)"/><circle cx="69" cy="75" r="2" transform="rotate(0,69,75)"/><circle cx="75" cy="75" r="2" transform="rotate(0,75,75)"/><circle cx="81" cy="75" r="2" transform="rotate(0,81,75)"/><circle cx="87" cy="75" r="3" transform="rotate(0,87,75)"/><circle cx="93" cy="75" r="2" transform="rotate(0,93,75)"/><circle cx="117" cy="75" r="1.5" transform="rotate(0,117,75)"/><circle cx="129" cy="75" r="1.5" transform="rotate(0,129,75)"/><circle cx="141" cy="75" r="2" transform="rotate(0,141,75)"/><circle cx="147" cy="75" r="3" transform="rotate(0,147,75)"/><circle cx="159" cy="75" r="2" transform="rotate(0,159,75)"/><circle cx="177" cy="75" r="1.5" transform="rotate(0,177,75)"/><circle cx="183" cy="75" r="3" transform="rotate(0,183,75)"/><circle cx="195" cy="75" r="1.5" transform="rotate(0,195,75)"/><circle cx="207" cy="75" r="1.5" transform="rotate(0,207,75)"/><circle cx="15" cy="81" r="2" transform="rotate(0,15,81)"/><circle cx="27" cy="81" r="3" transform="rotate(0,27,81)"/><circle cx="45" cy="81" r="1.5" transform="rotate(0,45,81)"/><circle cx="57" cy="81" r="3" transform="rotate(0,57,81)"/><circle cx="63" cy="81" r="1.5" transform="rotate(0,63,81)"/><circle cx="69" cy="81" r="2" transform="rotate(0,69,81)"/><circle cx="87" cy="81" r="1.2" transform="rotate(0,87,81)"/><circle cx="111" cy="81" r="2" transform="rotate(0,111,81)"/><circle cx="117" cy="81" r="1.5" transform="rotate(0,117,81)"/><circle cx="135" cy="81" r="3" transform="rotate(0,135,81)"/><circle cx="141" cy="81" r="1.5" transform="rotate(0,141,81)"/><circle cx="165" cy="81" r="2" transform="rotate(0,165,81)"/><circle cx="171" cy="81" r="3" transform="rotate(0,171,81)"/><circle cx="183" cy="81" r="2" transform="rotate(0,183,81)"/><circle cx="189" cy="81" r="2" transform="rotate(0,189,81)"/><circle cx="201" cy="81" r="3" transform="rotate(0,201,81)"/><circle cx="207" cy="81" r="2" transform="rotate(0,207,81)"/><circle cx="15" cy="87" r="1.2" transform="rotate(0,15,87)"/><circle cx="39" cy="87" r="2" transform="rotate(0,39,87)"/><circle cx="45" cy="87" r="1.5" transform="rotate(0,45,87)"/><circle cx="51" cy="87" r="3" transform="rotate(0,51,87)"/><circle cx="69" cy="87" r="1.5" transform="rotate(0,69,87)"/><circle cx="75" cy="87" r="1.5" transform="rotate(0,75,87)"/><circle cx="81" cy="87" r="1.2" transform="rotate(0,81,87)"/><circle cx="93" cy="87" r="2" transform="rotate(0,93,87)"/><circle cx="105" cy="87" r="3" transform="rotate(0,105,87)"/><circle cx="129" cy="87" r="1.2" transform="rotate(0,129,87)"/><circle cx="141" cy="87" r="3" transform="rotate(0,141,87)"/><circle cx="153" cy="87" r="3" transform="rotate(0,153,87)"/><circle cx="165" cy="87" r="2" transform="rotate(0,165,87)"/><circle cx="171" cy="87" r="3" transform="rotate(0,171,87)"/><circle cx="189" cy="87" r="1.2" transform="rotate(0,189,87)"/><circle cx="201" cy="87" r="1.5" transform="rotate(0,201,87)"/><circle cx="207" cy="87" r="3" transform="rotate(0,207,87)"/><circle cx="15" cy="93" r="2" transform="rotate(0,15,93)"/><circle cx="21" cy="93" r="1.5" transform="rotate(0,21,93)"/><circle cx="27" cy="93" r="1.5" transform="rotate(0,27,93)"/><circle cx="33" cy="93" r="3" transform="rotate(0,33,93)"/><circle cx="39" cy="93" r="1.2" transform="rotate(0,39,93)"/><circle cx="57" cy="93" r="3" transform="rotate(0,57,93)"/><circle cx="69" cy="93" r="1.2" transform="rotate(0,69,93)"/><circle cx="75" cy="93" r="3" transform="rotate(0,75,93)"/><circle cx="81" cy="93" r="3" transform="rotate(0,81,93)"/><circle cx="87" cy="93" r="1.5" transform="rotate(0,87,93)"/><circle cx="99" cy="93" r="2" transform="rotate(0,99,93)"/><circle cx="111" cy="93" r="2" transform="rotate(0,111,93)"/><circle cx="147" cy="93" r="3" transform="rotate(0,147,93)"/><circle cx="159" cy="93" r="1.2" transform="rotate(0,159,93)"/><circle cx="171" cy="93" r="1.5" transform="rotate(0,171,93)"/><circle cx="183" cy="93" r="1.5" transform="rotate(0,183,93)"/><circle cx="189" cy="93" r="2" transform="rotate(0,189,93)"/><circle cx="195" cy="93" r="2" transform="rotate(0,195,93)"/><circle cx="201" cy="93" r="3" transform="rotate(0,201,93)"/><circle cx="207" cy="93" r="1.2" transform="rotate(0,207,93)"/><circle cx="15" cy="99" r="1.2" transform="rotate(0,15,99)"/><circle cx="27" cy="99" r="2" transform="rotate(0,27,99)"/><circle cx="33" cy="99" r="1.2" transform="rotate(0,33,99)"/><circle cx="51" cy="99" r="3" transform="rotate(0,51,99)"/><circle cx="57" cy="99" r="3" transform="rotate(0,57,99)"/><circle cx="63" cy="99" r="3" transform="rotate(0,63,99)"/><circle cx="75" cy="99" r="3" transform="rotate(0,75,99)"/><circle cx="81" cy="99" r="1.2" transform="rotate(0,81,99)"/><circle cx="87" cy="99" r="2" transform="rotate(0,87,99)"/><circle cx="117" cy="99" r="3" transform="rotate(0,117,99)"/><circle cx="135" cy="99" r="3" transform="rotate(0,135,99)"/><circle cx="141" cy="99" r="3" transform="rotate(0,141,99)"/><circle cx="153" cy="99" r="1.5" transform="rotate(0,153,99)"/><circle cx="165" cy="99" r="3" transform="rotate(0,165,99)"/><circle cx="171" cy="99" r="1.2" transform="rotate(0,171,99)"/><circle cx="177" cy="99" r="1.2" transform="rotate(0,177,99)"/><circle cx="183" cy="99" r="2" transform="rotate(0,183,99)"/><circle cx="195" cy="99" r="1.5" transform="rotate(0,195,99)"/><circle cx="201" cy="99" r="2" transform="rotate(0,201,99)"/><circle cx="27" cy="105" r="1.5" transform="rotate(0,27,105)"/><circle cx="33" cy="105" r="1.5" transform="rotate(0,33,105)"/><circle cx="45" cy="105" r="2" transform="rotate(0,45,105)"/><circle cx="57" cy="105" r="3" transform="rotate(0,57,105)"/><circle cx="75" cy="105" r="3" transform="rotate(0,75,105)"/><circle cx="87" cy="105" r="3" transform="rotate(0,87,105)"/><circle cx="93" cy="105" r="3" transform="rotate(0,93,105)"/><circle cx="111" cy="105" r="1.5" transform="rotate(0,111,105)"/><circle cx="129" cy="105" r="1.5" transform="rotate(0,129,105)"/><circle cx="141" cy="105" r="1.5" transform="rotate(0,141,105)"/><circle cx="159" cy="105" r="2" transform="rotate(0,159,105)"/><circle cx="171" cy="105" r="2" transform="rotate(0,171,105)"/><circle cx="177" cy="105" r="1.5" transform="rotate(0,177,105)"/><circle cx="201" cy="105" r="1.5" transform="rotate(0,201,105)"/><circle cx="15" cy="111" r="3" transform="rotate(0,15,111)"/><circle cx="21" cy="111" r="2" transform="rotate(0,21,111)"/><circle cx="33" cy="111" r="2" transform="rotate(0,33,111)"/><circle cx="45" cy="111" r="1.2" transform="rotate(0,45,111)"/><circle cx="51" cy="111" r="1.2" transform="rotate(0,51,111)"/><circle cx="57" cy="111" r="1.5" transform="rotate(0,57,111)"/><circle cx="69" cy="111" r="3" transform="rotate(0,69,111)"/><circle cx="81" cy="111" r="2" transform="rotate(0,81,111)"/><circle cx="87" cy="111" r="2" transform="rotate(0,87,111)"/><circle cx="105" cy="111" r="1.2" transform="rotate(0,105,111)"/><circle cx="117" cy="111" r="3" transform="rotate(0,117,111)"/><circle cx="123" cy="111" r="1.5" transform="rotate(0,123,111)"/><circle cx="129" cy="111" r="1.5" transform="rotate(0,129,111)"/><circle cx="135" cy="111" r="3" transform="rotate(0,135,111)"/><circle cx="141" cy="111" r="3" transform="rotate(0,141,111)"/><circle cx="147" cy="111" r="1.2" transform="rotate(0,147,111)"/><circle cx="153" cy="111" r="2" transform="rotate(0,153,111)"/><circle cx="159" cy="111" r="1.5" transform="rotate(0,159,111)"/><circle cx="171" cy="111" r="1.5" transform="rotate(0,171,111)"/><circle cx="183" cy="111" r="2" transform="rotate(0,183,111)"/><circle cx="201" cy="111" r="2" transform="rotate(0,201,111)"/><circle cx="15" cy="117" r="3" transform="rotate(0,15,117)"/><circle cx="21" cy="117" r="2" transform="rotate(0,21,117)"/><circle cx="27" cy="117" r="1.5" transform="rotate(0,27,117)"/><circle cx="75" cy="117" r="3" transform="rotate(0,75,117)"/><circle cx="99" cy="117" r="3" transform="rotate(0,99,117)"/><circle cx="117" cy="117" r="2" transform="rotate(0,117,117)"/><circle cx="153" cy="117" r="2" transform="rotate(0,153,117)"/><circle cx="159" cy="117" r="1.5" transform="rotate(0,159,117)"/><circle cx="165" cy="117" r="2" transform="rotate(0,165,117)"/><circle cx="177" cy="117" r="2" transform="rotate(0,177,117)"/><circle cx="189" cy="117" r="1.5" transform="rotate(0,189,117)"/><circle cx="201" cy="117" r="2" transform="rotate(0,201,117)"/><circle cx="21" cy="123" r="3" transform="rotate(0,21,123)"/><circle cx="33" cy="123" r="3" transform="rotate(0,33,123)"/><circle cx="39" cy="123" r="3" transform="rotate(0,39,123)"/><circle cx="51" cy="123" r="3" transform="rotate(0,51,123)"/><circle cx="63" cy="123" r="2" transform="rotate(0,63,123)"/><circle cx="81" cy="123" r="3" transform="rotate(0,81,123)"/><circle cx="99" cy="123" r="1.5" transform="rotate(0,99,123)"/><circle cx="123" cy="123" r="1.5" transform="rotate(0,123,123)"/><circle cx="147" cy="123" r="2" transform="rotate(0,147,123)"/><circle cx="159" cy="123" r="2" transform="rotate(0,159,123)"/><circle cx="165" cy="123" r="1.5" transform="rotate(0,165,123)"/><circle cx="195" cy="123" r="3" transform="rotate(0,195,123)"/><circle cx="201" cy="123" r="2" transform="rotate(0,201,123)"/><circle cx="207" cy="123" r="1.2" transform="rotate(0,207,123)"/><circle cx="15" cy="129" r="1.5" transform="rotate(0,15,129)"/><circle cx="27" cy="129" r="2" transform="rotate(0,27,129)"/><circle cx="39" cy="129" r="3" transform="rotate(0,39,129)"/><circle cx="63" cy="129" r="2" transform="rotate(0,63,129)"/><circle cx="69" cy="129" r="1.5" transform="rotate(0,69,129)"/><circle cx="87" cy="129" r="1.5" transform="rotate(0,87,129)"/><circle cx="99" cy="129" r="3" transform="rotate(0,99,129)"/><circle cx="129" cy="129" r="2" transform="rotate(0,129,129)"/><circle cx="135" cy="129" r="2" transform="rotate(0,135,129)"/><circle cx="141" cy="129" r="3" transform="rotate(0,141,129)"/><circle cx="153" cy="129" r="3" transform="rotate(0,153,129)"/><circle cx="159" cy="129" r="3" transform="rotate(0,159,129)"/><circle cx="177" cy="129" r="3" transform="rotate(0,177,129)"/><circle cx="201" cy="129" r="2" transform="rotate(0,201,129)"/><circle cx="207" cy="129" r="2" transform="rotate(0,207,129)"/><circle cx="15" cy="135" r="1.2" transform="rotate(0,15,135)"/><circle cx="21" cy="135" r="1.2" transform="rotate(0,21,135)"/><circle cx="33" cy="135" r="3" transform="rotate(0,33,135)"/><circle cx="39" cy="135" r="1.5" transform="rotate(0,39,135)"/><circle cx="45" cy="135" r="2" transform="rotate(0,45,135)"/><circle cx="51" cy="135" r="2" transform="rotate(0,51,135)"/><circle cx="57" cy="135" r="3" transform="rotate(0,57,135)"/><circle cx="75" cy="135" r="3" transform="rotate(0,75,135)"/><circle cx="123" cy="135" r="1.5" transform="rotate(0,123,135)"/><circle cx="129" cy="135" r="3" transform="rotate(0,129,135)"/><circle cx="141" cy="135" r="2" transform="rotate(0,141,135)"/><circle cx="153" cy="135" r="1.2" transform="rotate(0,153,135)"/><circle cx="159" cy="135" r="2" transform="rotate(0,159,135)"/><circle cx="165" cy="135" r="2" transform="rotate(0,165,135)"/><circle cx="27" cy="141" r="1.5" transform="rotate(0,27,141)"/><circle cx="33" cy="141" r="1.5" transform="rotate(0,33,141)"/><circle cx="75" cy="141" r="2" transform="rotate(0,75,141)"/><circle cx="87" cy="141" r="1.5" transform="rotate(0,87,141)"/><circle cx="93" cy="141" r="2" transform="rotate(0,93,141)"/><circle cx="99" cy="141" r="3" transform="rotate(0,99,141)"/><circle cx="117" cy="141" r="2" transform="rotate(0,117,141)"/><circle cx="129" cy="141" r="2" transform="rotate(0,129,141)"/><circle cx="135" cy="141" r="1.2" transform="rotate(0,135,141)"/><circle cx="141" cy="141" r="3" transform="rotate(0,141,141)"/><circle cx="165" cy="141" r="2" transform="rotate(0,165,141)"/><circle cx="171" cy="141" r="3" transform="rotate(0,171,141)"/><circle cx="201" cy="141" r="3" transform="rotate(0,201,141)"/><circle cx="207" cy="141" r="3" transform="rotate(0,207,141)"/><circle cx="15" cy="147" r="1.2" transform="rotate(0,15,147)"/><circle cx="21" cy="147" r="1.5" transform="rotate(0,21,147)"/><circle cx="27" cy="147" r="3" transform="rotate(0,27,147)"/><circle cx="39" cy="147" r="1.5" transform="rotate(0,39,147)"/><circle cx="51" cy="147" r="2" transform="rotate(0,51,147)"/><circle cx="105" cy="147" r="3" transform="rotate(0,105,147)"/><circle cx="123" cy="147" r="3" transform="rotate(0,123,147)"/><circle cx="135" cy="147" r="1.5" transform="rotate(0,135,147)"/><circle cx="141" cy="147" r="2" transform="rotate(0,141,147)"/><circle cx="159" cy="147" r="3" transform="rotate(0,159,147)"/><circle cx="171" cy="147" r="2" transform="rotate(0,171,147)"/><circle cx="189" cy="147" r="1.5" transform="rotate(0,189,147)"/><circle cx="207" cy="147" r="1.5" transform="rotate(0,207,147)"/><circle cx="21" cy="153" r="1.2" transform="rotate(0,21,153)"/><circle cx="27" cy="153" r="2" transform="rotate(0,27,153)"/><circle cx="33" cy="153" r="2" transform="rotate(0,33,153)"/><circle cx="39" cy="153" r="3" transform="rotate(0,39,153)"/><circle cx="45" cy="153" r="2" transform="rotate(0,45,153)"/><circle cx="93" cy="153" r="2" transform="rotate(0,93,153)"/><circle cx="105" cy="153" r="2" transform="rotate(0,105,153)"/><circle cx="111" cy="153" r="3" transform="rotate(0,111,153)"/><circle cx="117" cy="153" r="2" transform="rotate(0,117,153)"/><circle cx="141" cy="153" r="1.5" transform="rotate(0,141,153)"/><circle cx="147" cy="153" r="2" transform="rotate(0,147,153)"/><circle cx="153" cy="153" r="1.5" transform="rotate(0,153,153)"/><circle cx="189" cy="153" r="1.5" transform="rotate(0,189,153)"/><circle cx="207" cy="153" r="3" transform="rotate(0,207,153)"/><circle cx="15" cy="159" r="1.5" transform="rotate(0,15,159)"/><circle cx="27" cy="159" r="1.5" transform="rotate(0,27,159)"/><circle cx="33" cy="159" r="1.2" transform="rotate(0,33,159)"/><circle cx="45" cy="159" r="1.5" transform="rotate(0,45,159)"/><circle cx="51" cy="159" r="2" transform="rotate(0,51,159)"/><circle cx="57" cy="159" r="1.5" transform="rotate(0,57,159)"/><circle cx="63" cy="159" r="1.2" transform="rotate(0,63,159)"/><circle cx="75" cy="159" r="3" transform="rotate(0,75,159)"/><circle cx="99" cy="159" r="2" transform="rotate(0,99,159)"/><circle cx="105" cy="159" r="3" transform="rotate(0,105,159)"/><circle cx="111" cy="159" r="1.5" transform="rotate(0,111,159)"/><circle cx="117" cy="159" r="2" transform="rotate(0,117,159)"/><circle cx="129" cy="159" r="2" transform="rotate(0,129,159)"/><circle cx="135" cy="159" r="2" transform="rotate(0,135,159)"/><circle cx="141" cy="159" r="2" transform="rotate(0,141,159)"/><circle cx="159" cy="159" r="2" transform="rotate(0,159,159)"/><circle cx="165" cy="159" r="2" transform="rotate(0,165,159)"/><circle cx="171" cy="159" r="2" transform="rotate(0,171,159)"/><circle cx="177" cy="159" r="2" transform="rotate(0,177,159)"/><circle cx="183" cy="159" r="1.2" transform="rotate(0,183,159)"/><circle cx="63" cy="165" r="1.2" transform="rotate(0,63,165)"/><circle cx="87" cy="165" r="1.2" transform="rotate(0,87,165)"/><circle cx="99" cy="165" r="1.5" transform="rotate(0,99,165)"/><circle cx="111" cy="165" r="1.2" transform="rotate(0,111,165)"/><circle cx="123" cy="165" r="2" transform="rotate(0,123,165)"/><circle cx="129" cy="165" r="3" transform="rotate(0,129,165)"/><circle cx="141" cy="165" r="1.5" transform="rotate(0,141,165)"/><circle cx="147" cy="165" r="3" transform="rotate(0,147,165)"/><circle cx="159" cy="165" r="1.5" transform="rotate(0,159,165)"/><circle cx="183" cy="165" r="3" transform="rotate(0,183,165)"/><circle cx="189" cy="165" r="1.2" transform="rotate(0,189,165)"/><circle cx="201" cy="165" r="1.2" transform="rotate(0,201,165)"/><circle cx="207" cy="165" r="3" transform="rotate(0,207,165)"/><circle cx="63" cy="171" r="1.2" transform="rotate(0,63,171)"/><circle cx="69" cy="171" r="1.5" transform="rotate(0,69,171)"/><circle cx="87" cy="171" r="2" transform="rotate(0,87,171)"/><circle cx="93" cy="171" r="1.2" transform="rotate(0,93,171)"/><circle cx="123" cy="171" r="3" transform="rotate(0,123,171)"/><circle cx="135" cy="171" r="2" transform="rotate(0,135,171)"/><circle cx="159" cy="171" r="1.5" transform="rotate(0,159,171)"/><circle cx="171" cy="171" r="3" transform="rotate(0,171,171)"/><circle cx="183" cy="171" r="1.5" transform="rotate(0,183,171)"/><circle cx="189" cy="171" r="2" transform="rotate(0,189,171)"/><circle cx="195" cy="171" r="1.2" transform="rotate(0,195,171)"/><circle cx="201" cy="171" r="2" transform="rotate(0,201,171)"/><circle cx="63" cy="177" r="1.5" transform="rotate(0,63,177)"/><circle cx="75" cy="177" r="1.2" transform="rotate(0,75,177)"/><circle cx="81" cy="177" r="2" transform="rotate(0,81,177)"/><circle cx="93" cy="177" r="1.5" transform="rotate(0,93,177)"/><circle cx="99" cy="177" r="3" transform="rotate(0,99,177)"/><circle cx="129" cy="177" r="2" transform="rotate(0,129,177)"/><circle cx="135" cy="177" r="2" transform="rotate(0,135,177)"/><circle cx="141" cy="177" r="1.5" transform="rotate(0,141,177)"/><circle cx="159" cy="177" r="2" transform="rotate(0,159,177)"/><circle cx="183" cy="177" r="3" transform="rotate(0,183,177)"/><circle cx="207" cy="177" r="1.5" transform="rotate(0,207,177)"/><circle cx="81" cy="183" r="1.2" transform="rotate(0,81,183)"/><circle cx="93" cy="183" r="1.5" transform="rotate(0,93,183)"/><circle cx="99" cy="183" r="3" transform="rotate(0,99,183)"/><circle cx="111" cy="183" r="3" transform="rotate(0,111,183)"/><circle cx="117" cy="183" r="1.5" transform="rotate(0,117,183)"/><circle cx="135" cy="183" r="2" transform="rotate(0,135,183)"/><circle cx="141" cy="183" r="1.5" transform="rotate(0,141,183)"/><circle cx="147" cy="183" r="1.5" transform="rotate(0,147,183)"/><circle cx="159" cy="183" r="1.5" transform="rotate(0,159,183)"/><circle cx="165" cy="183" r="2" transform="rotate(0,165,183)"/><circle cx="171" cy="183" r="1.5" transform="rotate(0,171,183)"/><circle cx="177" cy="183" r="3" transform="rotate(0,177,183)"/><circle cx="183" cy="183" r="1.5" transform="rotate(0,183,183)"/><circle cx="189" cy="183" r="2" transform="rotate(0,189,183)"/><circle cx="207" cy="183" r="3" transform="rotate(0,207,183)"/><circle cx="63" cy="189" r="3" transform="rotate(0,63,189)"/><circle cx="69" cy="189" r="1.5" transform="rotate(0,69,189)"/><circle cx="105" cy="189" r="1.2" transform="rotate(0,105,189)"/><circle cx="123" cy="189" r="1.5" transform="rotate(0,123,189)"/><circle cx="129" cy="189" r="2" transform="rotate(0,129,189)"/><circle cx="135" cy="189" r="2" transform="rotate(0,135,189)"/><circle cx="153" cy="189" r="1.5" transform="rotate(0,153,189)"/><circle cx="171" cy="189" r="3" transform="rotate(0,171,189)"/><circle cx="183" cy="189" r="3" transform="rotate(0,183,189)"/><circle cx="195" cy="189" r="1.2" transform="rotate(0,195,189)"/><circle cx="201" cy="189" r="2" transform="rotate(0,201,189)"/><circle cx="87" cy="195" r="1.5" transform="rotate(0,87,195)"/><circle cx="93" cy="195" r="2" transform="rotate(0,93,195)"/><circle cx="99" cy="195" r="2" transform="rotate(0,99,195)"/><circle cx="105" cy="195" r="3" transform="rotate(0,105,195)"/><circle cx="111" cy="195" r="1.5" transform="rotate(0,111,195)"/><circle cx="123" cy="195" r="3" transform="rotate(0,123,195)"/><circle cx="141" cy="195" r="3" transform="rotate(0,141,195)"/><circle cx="183" cy="195" r="1.2" transform="rotate(0,183,195)"/><circle cx="189" cy="195" r="3" transform="rotate(0,189,195)"/><circle cx="195" cy="195" r="2" transform="rotate(0,195,195)"/><circle cx="207" cy="195" r="2" transform="rotate(0,207,195)"/><circle cx="63" cy="201" r="1.2" transform="rotate(0,63,201)"/><circle cx="69" cy="201" r="2" transform="rotate(0,69,201)"/><circle cx="93" cy="201" r="3" transform="rotate(0,93,201)"/><circle cx="99" cy="201" r="2" transform="rotate(0,99,201)"/><circle cx="111" cy="201" r="3" transform="rotate(0,111,201)"/><circle cx="141" cy="201" r="1.2" transform="rotate(0,141,201)"/><circle cx="153" cy="201" r="3" transform="rotate(0,153,201)"/><circle cx="159" cy="201" r="1.5" transform="rotate(0,159,201)"/><circle cx="81" cy="207" r="2" transform="rotate(0,81,207)"/><circle cx="99" cy="207" r="1.2" transform="rotate(0,99,207)"/><circle cx="117" cy="207" r="2" transform="rotate(0,117,207)"/><circle cx="141" cy="207" r="3" transform="rotate(0,141,207)"/><circle cx="159" cy="207" r="1.5" transform="rotate(0,159,207)"/><circle cx="165" cy="207" r="3" transform="rotate(0,165,207)"/><circle cx="183" cy="207" r="3" transform="rotate(0,183,207)"/><circle cx="201" cy="207" r="3" transform="rotate(0,201,207)"/></g></svg>